# Blender 3.4.1
# www.blender.org
mtllib Cube (1).mtl
o Cube_(1)
v 44.000000 -0.000000 1.000000
v 41.000000 -0.000000 1.000000
v 44.000000 1.000000 1.000000
v 35.932831 2.087002 1.000000
v 41.000000 0.000000 -1.000000
v 35.932831 2.087002 -1.000000
v 44.000000 0.000000 -1.000000
v 44.000000 1.000000 -1.000000
v 45.000000 0.000000 -1.000000
v 45.000000 -0.000000 1.000000
v 45.000000 1.000000 -1.000000
v 45.000000 1.000000 1.000000
v 44.000000 5.500000 1.000001
v 44.000000 5.500000 -0.999999
v 45.000000 5.500000 1.000001
v 45.000000 5.500000 -0.999999
v 44.432476 4.500000 1.000001
v 44.432476 4.500000 -0.999999
v 45.000000 4.500000 1.000001
v 45.000000 4.500000 -0.999999
v 48.250000 4.500000 -0.999999
v 48.250000 4.500000 1.000001
v 48.250000 5.500000 -0.999999
v 48.250000 5.500000 1.000001
vn -0.0000 -0.0000 1.0000
vn -0.3808 -0.9246 -0.0000
vn -0.0000 -0.0000 -1.0000
vn 1.0000 -0.0000 -0.0000
vn 0.1335 0.9910 -0.0000
vn -0.0000 -1.0000 -0.0000
vn -0.0000 1.0000 -0.0000
vn -0.9925 0.1226 -0.0000
vn -0.9178 -0.3969 -0.0000
vt 3.000000 0.000000
vt 0.000000 0.000000
vt -3.000000 0.000000
vt 0.000000 1.000000
vt 3.000000 1.000000
vt 0.000000 1.000000
vt 0.000000 0.000000
vt -2.000000 0.000000
vt 0.000000 0.000000
vt 0.000000 -2.000000
vt -2.000000 1.000000
vt 0.000000 1.000000
vt 0.000000 -2.000000
vt 3.000000 -2.000000
vt -3.000000 0.000000
vt -3.000000 -2.000000
vt -2.000000 1.000000
vt -3.000000 1.000000
vt 2.000000 0.000000
vt 4.000000 -2.000000
vt -4.000000 0.000000
vt 0.000000 0.000000
vt 4.000000 0.000000
vt -4.000000 1.000000
vt 2.000000 1.000000
vt 4.000000 1.000000
vt 0.000000 1.000000
vt -3.000000 0.000000
vt 0.000000 5.500000
vt 3.000000 5.500000
vt -3.000000 -2.000000
vt -2.000000 5.500000
vt -3.000000 5.500000
vt 4.000000 5.500000
vt -4.000000 0.000000
vt -4.000000 5.500000
vt -4.000000 -2.000000
vt 0.000000 4.500000
vt 3.000000 4.500000
vt -2.000000 4.500000
vt -3.000000 4.500000
vt 0.000000 4.500000
vt 4.000000 0.000000
vt 4.000000 4.500000
vt 2.000000 4.500000
vt 4.000000 -2.000000
vt -4.000000 4.500000
vt 2.000000 4.500000
vt 7.250000 -2.000000
vt -7.250000 4.500000
vt 0.000000 4.500000
vt 7.250000 0.000000
vt 7.250000 4.500000
vt 2.000000 5.500000
vt -7.250000 5.500000
vt -7.250000 -2.000000
vt 0.000000 5.500000
vt 7.250000 5.500000
vt -7.250000 0.000000
s 0
usemtl Lit
f 3/5/1 4/6/1 2/2/1 1/1/1
f 4/6/2 6/11/2 5/8/2 2/2/2
f 6/12/3 8/18/3 7/15/3 5/9/3
f 11/25/4 12/27/4 10/22/4 9/19/4
f 8/16/5 6/13/5 4/7/5 3/3/5
f 1/1/6 2/2/6 5/10/6 7/14/6
f 9/20/6 10/23/6 1/1/6 7/14/6
f 11/24/3 9/21/3 7/15/3 8/18/3
f 10/23/1 12/26/1 3/5/1 1/1/1
f 15/35/7 16/37/7 14/31/7 13/28/7
f 17/38/8 18/40/8 8/17/8 3/4/8
f 19/44/1 17/39/1 3/5/1 12/26/1
f 18/41/3 20/47/3 11/24/3 8/18/3
f 20/45/4 19/42/4 12/27/4 11/25/4
f 13/29/9 14/32/9 18/40/9 17/38/9
f 15/34/1 13/30/1 17/39/1 19/44/1
f 14/33/3 16/36/3 20/47/3 18/41/3
f 23/54/4 24/57/4 22/51/4 21/48/4
f 21/49/6 22/52/6 19/43/6 20/46/6
f 23/55/3 21/50/3 20/47/3 16/36/3
f 22/53/1 24/58/1 15/34/1 19/44/1
f 24/59/7 23/56/7 16/37/7 15/35/7
